<svg xmlns="http://www.w3.org/2000/svg" xmlns:xlink="http://www.w3.org/1999/xlink" width="40" zoomAndPan="magnify" viewBox="0 0 30 30.000001" height="40" preserveAspectRatio="xMidYMid meet" version="1.0"><defs><g/><clipPath id="a130833e6b"><path d="M 23.710938 26.855469 L 25.886719 26.855469 L 25.886719 29 L 23.710938 29 Z M 23.710938 26.855469 " clip-rule="nonzero"/></clipPath></defs><g fill="#ffdad6" fill-opacity="1"><g transform="translate(3.112893, 27.837522)"><g><path d="M 1.40625 0 L 1.40625 -0.734375 L 4.65625 -1.265625 L 4.65625 -26.984375 L 1.40625 -27.484375 L 1.40625 -28.265625 L 22.6875 -28.265625 L 22.6875 -20.171875 L 21.734375 -20.171875 L 19 -27.375 L 8.546875 -27.375 L 8.546875 -14.125 L 14.515625 -14.125 L 16.609375 -19.25 L 17.5625 -19.25 L 17.5625 -8.09375 L 16.609375 -8.09375 L 14.515625 -13.28125 L 8.546875 -13.28125 L 8.546875 -1.265625 L 11.796875 -0.734375 L 11.796875 0 Z M 1.40625 0 "/></g></g></g><g clip-path="url(#a130833e6b)"><path fill="#ffdad6" d="M 25.738281 27.871094 C 25.738281 28.003906 25.714844 28.132812 25.664062 28.257812 C 25.609375 28.382812 25.539062 28.492188 25.441406 28.585938 C 25.347656 28.683594 25.238281 28.757812 25.113281 28.808594 C 24.988281 28.859375 24.859375 28.886719 24.726562 28.886719 C 24.589844 28.886719 24.460938 28.859375 24.335938 28.808594 C 24.210938 28.757812 24.101562 28.683594 24.007812 28.585938 C 23.910156 28.492188 23.839844 28.382812 23.785156 28.257812 C 23.734375 28.132812 23.710938 28.003906 23.710938 27.871094 C 23.710938 27.734375 23.734375 27.605469 23.785156 27.480469 C 23.839844 27.355469 23.910156 27.246094 24.007812 27.152344 C 24.101562 27.058594 24.210938 26.984375 24.335938 26.933594 C 24.460938 26.878906 24.589844 26.855469 24.726562 26.855469 C 24.859375 26.855469 24.988281 26.878906 25.113281 26.933594 C 25.238281 26.984375 25.347656 27.058594 25.441406 27.152344 C 25.539062 27.246094 25.609375 27.355469 25.664062 27.480469 C 25.714844 27.605469 25.738281 27.734375 25.738281 27.871094 Z M 25.738281 27.871094 " fill-opacity="1" fill-rule="nonzero"/></g></svg>